<svg width="32" height="32" xmlns="http://www.w3.org/2000/svg"><path d="M25.75 7H6.25C5.007 7 4 8.019 4 9.276V22.93c0 1.257 1.007 2.276 2.25 2.276h19.5c1.243 0 2.25-1.019 2.25-2.276V9.276C28 8.019 26.993 7 25.75 7zm.595 1.655v1.935c-1.115.866-2.893 2.212-6.694 5.049-.837.628-2.497 2.137-3.651 2.12-1.154.017-2.814-1.492-3.651-2.12-3.8-2.837-5.579-4.183-6.694-5.05V8.656h20.69zM5.655 23.552V12.793c1.14.895 2.756 2.151 5.22 4.054 1.086.844 2.99 2.707 5.125 2.695 2.125.012 4.004-1.824 5.125-2.695a843.307 843.307 0 0 0 5.22-4.054v10.759H5.655z"/></svg>